<?xml version="1.0" standalone="no"?>
<!DOCTYPE svg PUBLIC "-//W3C//DTD SVG 20010904//EN"
 "http://www.w3.org/TR/2001/REC-SVG-20010904/DTD/svg10.dtd">
<svg version="1.0" xmlns="http://www.w3.org/2000/svg"
 width="700.000000pt" height="700.000000pt" viewBox="0 0 700.000000 700.000000"
 preserveAspectRatio="xMidYMid meet">
<metadata>
Created by potrace 1.14, written by Peter Selinger 2001-2017
</metadata>
<g transform="translate(0.000000,700.000000) scale(0.100000,-0.100000)"
fill="#000000" stroke="none">
<path d="M0 4319 l0 -2681 28 6 c60 14 149 28 177 29 17 1 32 4 35 7 3 3 41
15 85 27 44 12 134 38 200 58 66 20 127 37 135 38 8 1 17 4 20 8 3 3 37 12 75
21 39 8 107 26 153 38 45 13 85 20 88 17 4 -3 -6 -28 -20 -54 -29 -51 -11 -33
39 39 42 61 71 139 101 272 18 84 50 133 104 161 32 16 161 45 173 38 18 -11
5 -66 -28 -113 -19 -27 -35 -61 -35 -74 0 -14 -5 -28 -10 -31 -17 -10 -12 -85
5 -85 8 0 15 -6 15 -13 0 -19 41 -92 104 -186 31 -45 56 -89 56 -97 0 -8 9
-14 19 -14 17 0 38 -33 33 -52 -1 -3 23 -31 52 -61 l54 -55 -23 -83 c-30 -109
-70 -227 -78 -236 -4 -3 -7 -24 -7 -45 0 -21 -4 -38 -10 -38 -5 0 -7 -7 -4
-15 4 -8 1 -15 -6 -15 -7 0 -10 -6 -7 -14 8 -19 -31 -148 -49 -162 -8 -6 -12
-18 -10 -25 5 -14 -84 -287 -138 -424 -15 -38 -34 -91 -42 -117 -12 -40 -115
-315 -139 -370 -5 -13 -3 -18 8 -18 8 0 18 10 22 23 10 30 12 36 15 42 4 8 7
17 15 52 4 18 11 31 15 28 3 -2 7 1 8 8 3 40 35 127 45 127 6 0 8 3 5 6 -4 3
5 36 19 72 43 111 91 255 164 492 80 261 84 270 104 270 14 0 19 16 16 52 -1
9 9 50 23 92 14 41 41 135 60 208 19 73 49 185 66 248 18 63 40 148 50 188 10
40 27 83 39 96 11 12 21 30 21 39 0 9 3 17 8 17 13 0 32 53 32 92 0 27 -4 36
-13 32 -28 -10 -36 19 -21 71 8 28 19 64 24 80 5 17 12 47 15 67 4 21 11 35
16 32 5 -3 9 9 9 26 0 19 10 44 24 61 21 24 23 34 16 60 -10 35 -37 59 -57 52
-7 -3 -13 2 -13 11 0 9 -4 16 -9 16 -5 0 -11 9 -14 20 -3 14 -14 20 -31 20
-22 0 -26 5 -26 27 l0 27 -16 -22 c-8 -12 -20 -20 -25 -17 -5 4 -9 0 -9 -7 0
-7 -7 -3 -15 9 -8 12 -12 28 -9 37 3 9 2 16 -4 16 -13 0 -47 58 -77 133 -25
61 -33 95 -15 67 5 -8 12 -12 15 -8 3 3 0 12 -7 19 -7 8 -15 23 -16 34 -2 10
-18 40 -35 65 -75 110 -84 125 -67 115 8 -5 11 -3 8 6 -3 8 -11 13 -17 12 -10
-3 -13 4 -10 23 0 3 -6 16 -15 29 -17 25 -13 47 13 77 39 45 21 176 -26 197
-16 7 -23 7 -23 0 0 -6 -4 -7 -10 -4 -5 3 -10 33 -10 66 l0 60 43 19 c23 10
66 21 96 24 l54 6 -21 -23 c-12 -13 -22 -27 -22 -33 1 -5 14 7 30 26 29 33 30
33 44 15 14 -19 15 -19 21 -2 4 9 14 17 22 17 9 0 12 -6 9 -17 -7 -22 4 -38
24 -38 22 0 42 -112 26 -145 -21 -44 -5 -55 19 -13 22 35 125 332 125 358 0 6
16 42 36 80 21 42 41 100 49 145 20 111 53 234 82 305 l26 63 76 8 c66 7 71 9
36 13 -37 5 -34 6 25 12 56 5 51 6 -36 5 l-100 -1 7 35 c14 67 28 145 34 194
6 46 8 48 34 43 28 -6 28 -6 30 54 2 56 1 60 -17 50 -14 -7 -19 -7 -19 4 0 8
4 12 9 9 4 -3 8 1 8 8 0 29 15 35 67 28 29 -3 54 -3 55 1 2 4 17 1 35 -6 55
-23 68 -69 54 -195 -6 -58 -11 -136 -11 -173 l0 -67 -42 5 c-36 4 -38 3 -12
-4 17 -4 36 -11 42 -15 18 -11 14 -26 -5 -26 -17 -1 -17 -1 0 -11 16 -10 18
-23 17 -107 -1 -76 5 -297 9 -322 1 -2 12 11 25 31 22 33 60 147 101 309 47
187 55 222 51 228 -6 10 14 115 23 125 5 5 46 10 92 12 74 3 82 2 65 -11 -11
-8 -15 -14 -9 -14 6 0 16 7 23 15 7 8 9 15 4 15 -4 0 2 10 13 23 25 26 83 136
84 157 0 8 5 4 10 -9 6 -16 6 -28 -2 -37 -6 -8 -8 -14 -4 -14 4 0 3 -6 -3 -12
-5 -7 -13 -53 -17 -103 -8 -95 -11 -121 -20 -170 -18 -98 -25 -136 -30 -183
-6 -46 -9 -51 -22 -40 -13 10 -19 8 -34 -11 -11 -13 -19 -32 -19 -42 0 -11 -7
-19 -17 -19 -17 -1 -17 -1 0 -14 9 -7 17 -21 17 -31 0 -10 14 -42 30 -72 17
-29 30 -65 31 -80 0 -25 1 -26 9 -8 22 52 39 128 45 205 4 47 12 96 17 110 5
14 11 49 13 77 2 29 7 63 10 75 7 23 7 23 -9 3 -16 -19 -17 -19 -10 15 4 19 7
41 7 48 0 6 6 12 13 12 13 0 28 94 29 183 0 26 3 47 7 47 14 0 27 75 33 175
10 205 11 208 96 219 l46 6 12 -62 c33 -175 31 -199 -21 -248 -28 -26 -9 -26
24 0 l26 20 12 -113 c11 -93 10 -123 0 -168 -8 -30 -14 -70 -15 -89 -3 -62
-35 -393 -45 -456 -13 -81 -13 -234 0 -234 6 0 10 6 10 14 0 19 88 9 170 -19
64 -21 65 -22 68 -62 2 -22 -3 -57 -11 -79 -78 -213 -97 -271 -95 -284 2 -8
12 8 22 35 10 28 24 64 31 80 7 17 17 43 24 58 32 80 50 148 50 197 0 30 4 68
9 85 l8 29 21 -44 c75 -161 94 -200 103 -205 20 -13 8 18 -55 141 -48 91 -64
131 -59 147 10 35 21 42 49 29 30 -14 33 -2 6 22 -15 14 -24 15 -40 7 -27 -15
-34 0 -22 46 5 21 12 71 15 112 3 40 7 76 10 78 2 3 17 -4 32 -14 16 -10 31
-16 34 -14 6 5 101 -131 162 -232 23 -38 51 -73 63 -77 17 -7 24 -20 29 -59 4
-28 11 -53 17 -57 8 -4 9 7 4 37 -10 69 -14 77 -46 99 -16 12 -29 25 -29 29 0
5 -38 64 -84 133 -182 271 -210 332 -222 478 -4 52 -10 87 -13 77 -4 -10 -3
-51 0 -90 12 -117 23 -442 16 -469 -7 -25 -7 -26 -47 -12 -22 8 -66 15 -96 15
-53 2 -55 3 -50 25 3 12 11 66 16 120 6 53 15 103 21 111 6 7 14 53 17 103 2
49 9 87 13 84 5 -3 9 21 9 53 0 41 -3 54 -10 43 -7 -11 -10 -4 -10 25 0 22 7
51 17 64 12 18 13 23 2 19 -8 -3 -21 -18 -29 -34 -8 -16 -18 -30 -22 -32 -5
-2 -8 -15 -8 -28 0 -14 -4 -23 -9 -19 -6 3 -7 20 -4 38 9 53 10 127 3 175 -6
40 -4 48 14 63 20 17 23 16 96 -55 41 -40 109 -105 150 -144 52 -50 81 -85 94
-119 11 -26 35 -73 54 -103 19 -30 43 -73 53 -95 10 -22 18 -34 18 -28 1 15
-49 124 -65 140 -6 6 -21 40 -34 75 -16 43 -38 79 -71 113 -47 50 -48 50 -32
80 l16 29 19 -24 c11 -14 57 -86 102 -162 118 -198 198 -312 279 -401 76 -83
96 -115 97 -159 0 -15 6 -33 13 -40 19 -19 92 -218 121 -329 30 -116 38 -138
51 -138 6 -1 11 -11 12 -23 5 -55 4 -238 -1 -246 -8 -13 -36 -257 -36 -314 0
-36 6 -54 26 -78 15 -17 25 -32 23 -34 -2 -2 -27 -15 -56 -31 -30 -16 -54 -36
-57 -49 -25 -92 44 -206 124 -206 14 0 56 18 93 39 l67 40 26 -24 c14 -13 27
-32 28 -41 2 -10 11 -23 21 -28 10 -6 32 -27 49 -46 135 -152 173 -196 302
-348 44 -51 102 -119 129 -151 56 -66 185 -208 290 -321 39 -41 116 -129 170
-194 109 -130 292 -322 305 -319 4 1 18 -10 31 -25 13 -14 16 -20 7 -13 -10 7
-18 9 -18 4 0 -13 35 -45 42 -38 3 3 11 -2 19 -12 12 -14 12 -16 0 -8 -10 5
-12 4 -7 -4 4 -6 11 -9 16 -6 4 3 45 -39 91 -92 46 -54 85 -100 89 -103 3 -3
25 -29 49 -59 39 -47 43 -56 32 -73 -11 -17 -9 -24 10 -44 20 -22 24 -23 39
-9 15 14 18 14 30 0 12 -14 8 -22 -28 -55 -38 -34 -53 -60 -36 -60 4 0 26 16
50 35 23 19 45 35 49 35 11 0 -83 -106 -155 -176 -36 -34 -61 -66 -57 -70 4
-4 59 44 122 106 63 63 117 111 120 108 3 -3 -12 -25 -35 -49 -38 -41 -48 -59
-33 -59 4 0 28 19 52 42 25 24 36 31 23 17 -12 -14 -22 -28 -22 -32 0 -12 23
-7 41 9 22 20 47 6 80 -46 14 -20 60 -76 104 -124 44 -48 82 -92 84 -98 2 -5
-23 -36 -54 -68 -47 -48 -62 -57 -76 -49 -28 15 -42 11 -36 -11 3 -13 0 -20
-10 -20 -8 0 -12 -4 -8 -10 9 -15 37 1 30 17 -4 11 -1 13 11 9 8 -3 18 -6 20
-6 2 0 4 -6 4 -13 0 -8 18 -28 40 -46 31 -25 38 -36 30 -46 -8 -9 -6 -14 6
-19 28 -11 37 -7 24 9 -11 13 -8 21 20 50 36 37 53 45 44 20 -4 -8 -3 -31 0
-50 7 -34 8 -35 56 -35 39 0 52 4 60 19 14 27 13 47 -6 65 -25 25 -47 20 -42
-9 3 -16 -1 -30 -13 -41 -18 -16 -19 -15 -19 23 0 42 10 56 47 65 15 4 30 -3
49 -23 28 -29 28 -29 10 -60 -10 -17 -16 -33 -13 -35 3 -3 32 -4 65 -2 l60 3
-55 60 c-130 142 -194 218 -291 343 -94 120 -112 140 -112 128 0 -2 36 -53 81
-113 84 -113 56 -91 -66 52 -33 39 -62 72 -65 75 -3 3 -57 64 -120 135 -63 72
-120 136 -127 143 -26 27 -12 23 24 -7 56 -47 60 -37 9 22 -25 30 -43 57 -39
60 14 14 36 6 71 -27 20 -19 123 -110 227 -202 424 -372 411 -360 470 -456 31
-49 70 -118 88 -153 l32 -65 63 0 62 0 0 1594 0 1594 -84 -5 c-47 -2 -92 0
-103 5 -18 10 -579 28 -678 22 -61 -3 -61 -3 -161 4 -45 4 -180 8 -300 11
-121 2 -234 9 -253 14 -19 6 -39 7 -45 3 -6 -4 -22 -7 -36 -6 -14 1 -178 4
-365 8 -187 3 -355 9 -372 12 -22 4 -33 2 -33 -5 0 -7 -5 -9 -11 -5 -6 3 -89
8 -185 11 -159 4 -175 3 -181 -13 -6 -16 -7 -16 -14 2 -4 10 -8 27 -8 37 -1
17 11 17 187 12 339 -10 695 -19 842 -21 80 -1 150 -3 155 -5 6 -1 62 -3 125
-4 63 -1 216 -5 340 -10 254 -8 252 -8 300 0 26 4 31 3 20 -5 -11 -8 15 -10
95 -10 61 1 181 1 268 0 87 0 163 2 169 6 7 4 8 3 4 -4 -5 -9 36 -12 158 -12
l166 0 0 1885 0 1885 -3500 0 -3500 0 0 -2681z m4460 1191 c0 -5 -4 -10 -10
-10 -5 0 -10 5 -10 10 0 6 5 10 10 10 6 0 10 -4 10 -10z m-2065 -30 c3 -5 -1
-10 -9 -10 -9 0 -16 5 -16 10 0 6 4 10 9 10 6 0 13 -4 16 -10z m435 0 c0 -5
-14 -17 -31 -25 -30 -16 -30 -16 -19 5 6 11 15 18 20 15 5 -3 11 -1 15 5 8 13
15 13 15 0z m-423 -35 c0 -12 -3 -12 -16 -3 -9 7 -18 14 -20 15 -2 2 5 3 16 3
11 0 20 -7 20 -15z m-64 -22 c-7 -2 -19 -2 -25 0 -7 3 -2 5 12 5 14 0 19 -2
13 -5z m535 -45 c-2 -7 3 -12 10 -10 6 1 12 -5 12 -14 0 -13 -3 -14 -14 -5 -8
6 -18 11 -22 10 -30 -5 -61 3 -61 16 0 11 11 15 39 15 25 0 37 -4 36 -12z
m-81 -37 c-7 -2 -20 -8 -29 -13 -14 -6 -16 -5 -12 7 4 8 10 15 15 15 5 0 8 3
8 8 -4 21 3 24 15 6 11 -14 11 -20 3 -23z m102 -33 c-1 -15 -3 -17 -6 -7 -3
11 -13 15 -31 13 l-27 -4 25 9 c38 14 40 13 39 -11z m-643 -14 c-3 -8 0 -11 8
-8 7 3 21 -4 31 -16 10 -11 15 -20 10 -20 -4 0 3 -9 16 -20 l24 -21 -32 16
c-18 8 -33 21 -33 27 0 6 -3 8 -7 5 -3 -4 -13 -1 -21 6 -13 9 -14 9 -8 0 5 -9
2 -11 -8 -7 -8 3 -13 12 -10 20 2 8 6 21 9 30 3 8 10 12 16 9 6 -4 8 -13 5
-21z m599 -41 c24 -27 25 -27 25 -6 0 12 4 24 9 28 5 3 9 -8 9 -25 -1 -16 -5
-30 -10 -30 -5 0 -6 -4 -3 -10 3 -5 1 -10 -4 -10 -6 0 -11 -4 -11 -10 0 -5 5
-9 12 -7 7 1 10 -17 9 -58 -2 -33 -4 -62 -6 -64 -2 -2 -16 23 -31 55 -17 38
-23 59 -15 62 14 5 15 32 1 32 -5 0 -10 7 -10 15 0 9 6 12 17 8 11 -4 14 -3 9
5 -4 7 -14 12 -22 12 -9 0 -12 5 -8 12 5 8 2 9 -10 5 -10 -4 -15 -3 -11 3 10
16 23 12 50 -17z m-567 -79 c2 -1 -4 -4 -12 -7 -9 -4 -15 -1 -13 6 1 7 -8 11
-23 10 -22 -2 -23 -2 -5 6 12 5 26 4 35 -2 8 -6 16 -12 18 -13z m-31 -30 c13
-4 20 -10 17 -15 -3 -5 1 -7 8 -4 7 3 36 -12 63 -33 l50 -38 -3 -69 c-1 -38
-4 -70 -5 -72 -2 -2 -18 4 -36 13 -23 12 -50 15 -92 12 l-60 -4 3 30 c2 17 8
34 13 39 6 4 5 11 -5 16 -10 7 -17 6 -22 -2 -13 -20 -9 2 6 31 7 15 16 44 20
65 7 39 8 40 43 31z m484 -70 l37 -36 -20 -34 c-17 -29 -18 -34 -5 -34 9 0 23
10 31 22 11 15 16 17 16 8 0 -30 -17 -39 -84 -44 -61 -4 -67 -3 -60 12 3 9 13
45 21 80 8 34 18 62 21 62 3 0 23 -16 43 -36z m-281 -21 c0 -20 -3 -24 -11
-16 -7 7 -9 19 -6 27 10 24 17 19 17 -11z m389 -47 c1 -55 -6 -42 -13 24 -4
37 -3 48 3 35 5 -11 10 -38 10 -59z m-327 46 c-7 -2 -9 -8 -6 -13 3 -6 11 -6
20 2 7 6 11 15 8 20 -9 15 34 10 49 -6 13 -13 16 -13 27 0 18 22 31 18 26 -7
-2 -13 -18 -67 -35 -120 -18 -53 -35 -123 -39 -155 l-7 -58 -58 -3 c-31 -2
-57 -7 -57 -11 0 -4 6 -8 13 -9 26 -2 92 -14 95 -17 2 -1 -8 -15 -22 -30 -14
-15 -46 -61 -73 -102 -57 -91 -61 -85 -51 80 4 62 10 172 14 245 l7 133 20
-22 20 -22 8 22 c5 11 13 21 18 21 5 0 7 9 4 20 -7 27 4 53 19 44 9 -6 9 -9 0
-12z m628 -30 c0 -15 -2 -15 -10 -2 -13 20 -13 33 0 25 6 -3 10 -14 10 -23z
m50 -7 c14 -19 14 -19 -2 -6 -10 7 -18 18 -18 24 0 6 1 8 3 6 1 -2 9 -13 17
-24z m-4 -52 c-7 -7 -26 7 -26 19 0 6 6 6 15 -2 9 -7 13 -15 11 -17z m-22 -12
c8 -13 -4 -42 -15 -35 -12 7 -12 44 0 44 6 0 12 -4 15 -9z m127 -37 c35 -14
79 -40 97 -57 27 -26 32 -38 30 -69 -1 -21 -5 -38 -10 -38 -13 0 -198 169
-198 182 0 13 11 10 81 -18z m-531 9 c0 -5 -19 -28 -41 -53 -23 -24 -36 -46
-30 -48 18 -6 59 25 84 63 25 40 37 44 37 15 0 -38 -27 -85 -63 -113 -46 -35
-115 -66 -145 -67 -22 0 -23 3 -17 43 4 23 13 53 20 67 7 14 15 37 19 52 4 20
15 30 39 37 40 11 97 14 97 4z m-613 -105 c-3 -8 -6 -5 -6 6 -1 11 2 17 5 13
3 -3 4 -12 1 -19z m732 -45 c-1 -16 -5 -39 -9 -53 -6 -20 -8 -14 -9 28 -1 28
3 52 9 52 6 0 10 -12 9 -27z m444 -726 c13 -15 16 -29 11 -50 -3 -17 -6 -48
-6 -69 1 -33 -2 -38 -21 -38 -24 0 -64 23 -84 48 -12 14 -13 14 -13 0 0 -20
46 -58 70 -58 10 0 22 -6 28 -13 8 -9 -12 -7 -72 7 l-83 19 19 33 c11 18 20
57 22 91 2 32 4 59 5 61 1 1 25 0 54 -4 34 -4 58 -13 70 -27z m-1793 -60 c0
-2 -15 -14 -32 -27 l-33 -23 24 26 c21 23 41 35 41 24z m40 0 c0 -2 -10 -12
-22 -23 l-23 -19 19 23 c18 21 26 27 26 19z m59 -77 c25 0 -18 -38 -73 -65
-34 -16 -44 -24 -30 -25 12 0 45 15 73 34 l51 35 0 -28 c0 -43 -49 -80 -148
-111 -32 -10 -45 -11 -54 -2 -9 9 -9 12 1 12 8 0 10 7 6 20 -4 11 -2 20 4 20
6 0 10 3 10 8 -1 4 -1 23 0 43 1 32 6 39 39 55 20 10 43 17 51 15 7 -1 10 2 7
8 -4 6 6 4 21 -4 15 -8 34 -15 42 -15z m5 -134 c-3 -9 -17 -16 -33 -16 l-26 0
30 19 c34 21 38 21 29 -3z m-20 -42 c3 -8 2 -13 -2 -11 -6 5 -57 -2 -142 -18
-34 -7 -35 -7 -13 9 12 9 48 20 80 25 32 5 61 9 64 10 4 0 10 -6 13 -15z
m3493 -450 c-3 -3 -12 -4 -19 -1 -8 3 -5 6 6 6 11 1 17 -2 13 -5z m1673 -124
c13 -8 13 -10 -2 -10 -9 0 -20 5 -23 10 -8 13 5 13 25 0z m-2190 -60 c0 -5 -4
-10 -10 -10 -5 0 -10 5 -10 10 0 6 5 10 10 10 6 0 10 -4 10 -10z m687 -196
c-3 -3 -12 -4 -19 -1 -8 3 -5 6 6 6 11 1 17 -2 13 -5z m326 -41 c-13 -2 -33
-2 -45 0 -13 2 -3 4 22 4 25 0 35 -2 23 -4z m-1386 -50 c9 -16 37 -54 60 -85
24 -31 43 -61 43 -66 0 -17 -105 -75 -145 -79 -47 -5 -80 19 -108 79 -32 69
-21 100 53 148 57 36 75 37 97 3z m2246 20 c-7 -2 -19 -2 -25 0 -7 3 -2 5 12
5 14 0 19 -2 13 -5z m210 -10 c-7 -2 -21 -2 -30 0 -10 3 -4 5 12 5 17 0 24 -2
18 -5z m232 -4 c-50 -5 -83 -5 -89 1 -7 7 22 10 80 9 l89 -2 -80 -8z m-5519
-591 c-3 -13 -8 -41 -11 -62 -8 -46 -36 -116 -47 -116 -17 0 -6 78 17 125 14
28 25 56 25 63 0 6 5 12 10 12 6 0 8 -10 6 -22z m-2 -244 c3 -8 2 -12 -4 -9
-6 3 -10 10 -10 16 0 14 7 11 14 -7z m236 -328 c0 -3 -4 -8 -10 -11 -5 -3 -10
-1 -10 4 0 6 5 11 10 11 6 0 10 -2 10 -4z m40 -57 c0 -14 -17 -10 -23 5 -4 10
-1 13 9 9 7 -3 14 -9 14 -14z m4248 -649 c3 -7 -4 -5 -14 4 -11 9 -28 23 -39
32 -11 9 -4 7 15 -5 19 -11 36 -25 38 -31z m70 -27 c5 -18 -10 -16 -34 2 -18
15 -18 15 5 13 14 -2 26 -9 29 -15z m312 -178 c144 -64 204 -125 338 -344 l33
-53 -39 33 c-138 121 -472 421 -472 425 0 2 8 0 18 -5 9 -6 64 -31 122 -56z
m-245 -46 c-5 -7 -14 -4 -26 7 -15 13 -16 20 -8 31 10 11 14 10 26 -7 8 -11
11 -25 8 -31z m829 -599 c9 -17 15 -30 12 -30 -20 0 -137 143 -136 167 1 11
103 -102 124 -137z m-381 106 c15 -23 15 -25 -8 -40 -23 -15 -25 -15 -35 5 -9
16 -8 25 6 40 21 23 19 24 37 -5z m-71 -109 c-18 -20 -32 -8 -32 29 0 32 11
35 30 11 17 -20 17 -23 2 -40z"/>
<path d="M2216 5064 c-4 -9 -4 -19 -1 -22 3 -3 5 1 5 9 0 12 2 12 10 -1 5 -8
11 -12 14 -10 2 3 -1 13 -9 23 -12 16 -13 16 -19 1z"/>
<path d="M3232 3980 c0 -14 2 -19 5 -12 2 6 2 18 0 25 -3 6 -5 1 -5 -13z"/>
<path d="M1510 3890 c0 -5 5 -10 11 -10 5 0 7 5 4 10 -3 6 -8 10 -11 10 -2 0
-4 -4 -4 -10z"/>
<path d="M3276 4741 c12 -5 31 -22 43 -38 l21 -28 -13 35 c-11 28 -19 35 -43
37 -25 2 -26 2 -8 -6z"/>
<path d="M2258 4453 c7 -3 16 -2 19 1 4 3 -2 6 -13 5 -11 0 -14 -3 -6 -6z"/>
<path d="M2305 4440 c27 -12 43 -12 25 0 -8 5 -22 9 -30 9 -10 0 -8 -3 5 -9z"/>
<path d="M3656 4327 c3 -10 9 -15 12 -12 3 3 0 11 -7 18 -10 9 -11 8 -5 -6z"/>
<path d="M3736 4170 c9 -19 31 -51 50 -70 23 -24 38 -54 48 -95 l14 -60 -5 55
c-7 64 -16 86 -52 120 -14 14 -36 39 -49 55 l-23 30 17 -35z"/>
<path d="M2038 3985 c-7 -8 3 -55 12 -55 15 0 20 34 7 47 -7 7 -16 11 -19 8z"/>
<path d="M3966 3982 c-3 -5 -1 -22 4 -38 8 -29 8 -29 9 9 1 36 -3 45 -13 29z"/>
<path d="M2492 3808 c-14 -14 -16 -48 -3 -48 8 0 23 51 17 57 -1 2 -8 -3 -14
-9z"/>
<path d="M1565 3689 c-11 -17 1 -21 15 -4 8 9 8 15 2 15 -6 0 -14 -5 -17 -11z"/>
<path d="M1720 3640 c-9 -6 -10 -10 -3 -10 6 0 15 5 18 10 8 12 4 12 -15 0z"/>
<path d="M3440 3620 c0 -13 7 -20 20 -20 13 0 20 7 20 20 0 13 -7 20 -20 20
-13 0 -20 -7 -20 -20z"/>
<path d="M1720 3536 c0 -9 5 -16 10 -16 6 0 10 4 10 9 0 6 -4 13 -10 16 -5 3
-10 -1 -10 -9z"/>
<path d="M1830 3404 c-46 -20 -70 -51 -70 -94 0 -45 31 -113 61 -134 29 -20
88 -21 116 -1 30 21 63 78 63 109 0 44 -36 102 -74 120 -41 19 -51 19 -96 0z
m119 -41 c52 -63 33 -153 -39 -183 -42 -17 -78 -5 -107 39 l-23 34 38 17 c41
18 82 63 82 88 0 8 -18 -5 -40 -30 -48 -55 -78 -66 -86 -33 -8 31 10 62 49 85
51 32 90 26 126 -17z"/>
<path d="M1925 3325 c-3 -8 -7 -22 -10 -30 -2 -8 0 -17 6 -20 13 -8 49 4 49
16 0 6 -8 8 -19 4 -15 -5 -18 -1 -13 20 5 27 -6 35 -13 10z"/>
<path d="M1848 3244 c-35 -18 -36 -26 -4 -18 22 5 24 3 19 -18 -4 -18 -3 -20
6 -12 7 6 11 23 9 37 -3 24 -4 25 -30 11z"/>
<path d="M3211 3384 c0 -11 3 -14 6 -6 3 7 2 16 -1 19 -3 4 -6 -2 -5 -13z"/>
<path d="M3178 3281 c-10 -29 -18 -57 -18 -62 0 -5 -17 -46 -38 -92 -21 -45
-39 -84 -40 -87 0 -3 -5 -18 -11 -34 -11 -28 -11 -28 19 -24 22 3 27 1 20 -7
-7 -9 7 -30 49 -74 32 -33 68 -80 80 -103 l21 -43 -2 42 c-4 54 9 44 52 -42
19 -36 37 -68 41 -70 4 -3 5 -14 2 -24 -3 -13 2 -21 17 -26 19 -6 21 -12 16
-45 -20 -127 -147 -414 -214 -483 -20 -21 -57 -47 -82 -58 -50 -23 -184 -40
-215 -28 -18 7 -18 8 -2 8 10 1 15 6 12 11 -4 7 -13 7 -26 0 -15 -9 -19 -7
-19 5 0 10 5 13 13 9 6 -4 4 2 -6 14 -11 12 -25 18 -35 15 -11 -5 -13 -3 -7 7
6 10 2 11 -21 6 -28 -7 -28 -7 -9 8 20 15 20 15 -3 11 -12 -2 -20 0 -17 5 3 5
1 11 -5 15 -15 9 -12 81 6 175 8 45 13 84 10 87 -9 9 -35 -63 -41 -117 -12
-97 -36 -191 -52 -197 -8 -3 -12 -11 -9 -18 3 -8 -2 -16 -9 -19 -8 -3 -12 -14
-10 -25 2 -12 -3 -33 -11 -48 -7 -16 -14 -32 -14 -38 0 -5 -9 -39 -20 -75 -10
-36 -29 -105 -40 -155 -12 -49 -26 -103 -32 -118 -6 -15 -8 -30 -5 -33 3 -3
18 33 32 80 14 47 31 86 36 86 6 0 8 8 4 19 -3 10 8 59 26 107 17 49 32 99 32
112 1 12 10 25 20 28 9 3 17 14 17 25 0 10 5 19 11 19 13 0 5 -86 -10 -104 -5
-6 -14 -42 -19 -79 -6 -38 -16 -75 -23 -83 -8 -10 -8 -14 0 -14 16 0 14 -71
-3 -106 -8 -16 -21 -47 -30 -69 -10 -22 -33 -72 -52 -112 -35 -71 -51 -133
-35 -133 13 0 32 26 25 33 -8 7 13 64 31 87 7 8 25 49 41 90 15 41 31 77 35
80 6 5 23 130 34 240 6 62 30 143 43 148 28 9 125 -31 165 -67 45 -42 51 -60
82 -251 10 -57 13 -65 14 -35 0 22 -10 90 -23 150 -23 102 -27 112 -62 143
l-37 32 37 0 c49 0 212 55 251 84 29 22 37 23 165 19 75 -2 178 -13 233 -24
110 -21 143 -23 152 -9 3 5 27 7 53 5 26 -2 59 -4 74 -5 22 0 38 -14 81 -72
29 -40 82 -122 116 -183 52 -91 208 -334 239 -370 4 -5 23 -36 42 -68 19 -32
40 -66 45 -76 6 -9 20 -30 32 -47 12 -17 19 -34 15 -38 -4 -4 0 -6 8 -4 8 2
14 -3 12 -10 -1 -8 2 -11 8 -7 5 3 10 1 10 -6 0 -7 8 -21 18 -32 10 -13 12
-17 3 -12 -8 5 -3 -7 11 -26 14 -19 39 -61 55 -94 33 -66 57 -106 132 -210 66
-92 142 -201 161 -230 8 -13 32 -47 53 -77 20 -29 45 -64 54 -78 10 -14 32
-43 50 -64 18 -21 30 -43 27 -48 -3 -4 8 -25 24 -46 16 -20 56 -77 88 -127 89
-135 70 -125 244 -125 l150 0 0 29 c0 41 -99 187 -202 298 -46 49 -117 128
-158 177 -41 48 -87 94 -101 101 -49 26 -114 -11 -125 -72 -3 -18 -10 -33 -14
-33 -5 0 -66 88 -137 196 -70 108 -162 249 -204 313 -208 317 -251 386 -275
433 -15 29 -51 87 -81 130 -30 43 -51 78 -47 77 21 -3 24 2 13 24 -9 18 -9 20
2 10 7 -7 19 -13 26 -13 10 0 10 5 1 26 -8 18 -17 24 -30 20 -64 -20 -64 -20
-49 -3 7 9 20 17 27 17 8 0 14 7 14 15 0 13 -4 14 -20 5 -18 -10 -19 -8 -13
21 5 29 4 32 -15 27 -18 -5 -19 -3 -10 18 20 44 -16 64 -73 40 -11 -5 -19 1
-27 21 -11 24 -11 26 1 11 20 -26 41 -24 27 2 -17 31 -1 44 20 18 15 -18 19
-19 20 -7 0 9 -8 23 -18 32 -16 15 -20 15 -40 1 -27 -19 -29 -3 -2 21 24 21
18 35 -16 35 -21 0 -24 4 -22 28 2 20 -1 26 -12 23 -59 -14 -57 -14 -32 3 39
30 23 76 -28 76 -14 0 -32 -6 -39 -12 -11 -11 -13 -9 -8 11 3 13 1 33 -4 43
-16 30 1 44 22 17 22 -30 34 -20 17 15 -10 23 -16 26 -37 21 -15 -3 -32 -7
-39 -8 -7 -1 -22 14 -34 32 -13 19 -17 32 -10 27 6 -4 12 -2 12 3 0 6 -7 11
-15 11 -8 0 -16 7 -16 15 -1 8 -3 20 -4 25 -1 6 -3 16 -4 23 -1 8 -4 7 -11 -3
-7 -10 -10 -11 -11 -2 -3 21 -4 26 -23 65 -10 20 -23 37 -28 37 -6 0 -26 14
-45 31 -20 17 -29 30 -22 29 32 -5 43 2 19 11 -14 6 -26 9 -27 7 -1 -2 -21 17
-46 42 -32 33 -50 44 -68 42 -19 -2 -21 -1 -9 7 19 13 13 17 -33 24 -30 5 -37
3 -30 -6 4 -7 0 -4 -10 7 -18 19 -17 20 5 33 l23 14 -22 -4 c-16 -4 -30 3 -48
25 -14 16 -25 36 -25 44 0 9 -4 13 -9 10 -11 -7 -30 39 -75 182 -52 162 -58
189 -65 297 l-6 100 -17 -54z m307 -721 c3 -5 1 -10 -4 -10 -6 0 -11 5 -11 10
0 6 2 10 4 10 3 0 8 -4 11 -10z m459 -469 c9 -15 -23 -36 -36 -23 -5 5 -7 15
-4 21 9 13 33 14 40 2z m56 -136 c-7 -9 -15 -13 -17 -11 -7 7 7 26 19 26 6 0
6 -6 -2 -15z m105 -115 c3 -5 1 -10 -5 -10 -6 0 -9 -4 -6 -9 10 -16 -22 -20
-35 -5 -10 13 -10 17 2 25 19 12 36 11 44 -1z m19 -85 c-4 -8 -10 -12 -15 -9
-11 6 -2 24 11 24 5 0 7 -7 4 -15z m1100 -1353 c3 -5 -1 -9 -9 -9 -8 0 -12 4
-9 9 3 4 7 8 9 8 2 0 6 -4 9 -8z m32 -33 c3 -6 1 -16 -6 -22 -9 -9 -11 -8 -8
3 2 8 -3 14 -10 12 -8 -1 -11 2 -7 8 8 13 22 13 31 -1z m-40 -46 c10 -21 23
-41 27 -44 4 -3 7 -10 6 -15 -5 -16 12 -54 22 -49 5 4 9 -1 9 -10 0 -23 -57
-78 -71 -69 -8 4 -9 3 -5 -4 9 -15 1 -15 -25 -2 -10 6 -19 16 -19 21 0 6 -10
19 -22 29 -13 10 -31 34 -42 53 -17 32 -17 38 -3 51 8 8 17 12 21 9 3 -4 6 1
6 9 0 14 54 57 71 58 3 0 14 -17 25 -37z m86 -21 c-2 -7 0 -12 5 -10 10 3 64
-51 90 -90 12 -17 13 -26 4 -35 -8 -8 -11 -7 -11 7 0 9 -13 29 -29 44 -16 15
-32 37 -36 50 -3 12 -11 20 -16 16 -12 -7 -39 27 -32 40 4 5 1 6 -5 2 -6 -4
-9 -14 -6 -24 5 -15 4 -15 -6 1 -9 14 -9 21 0 32 10 11 14 11 29 -3 10 -9 16
-23 13 -30z m-34 -67 c-3 -3 -9 2 -12 12 -6 14 -5 15 5 6 7 -7 10 -15 7 -18z
m203 -142 c25 -40 33 -67 18 -57 -5 3 -9 11 -9 17 0 7 -9 23 -20 37 -19 24
-25 40 -16 40 2 0 15 -17 27 -37z"/>
<path d="M1870 2872 c0 -19 43 -107 47 -95 3 7 -7 33 -21 60 -14 26 -25 42
-26 35z"/>
<path d="M1735 2750 c-4 -6 -3 -16 3 -22 6 -6 12 -6 17 2 4 6 3 16 -3 22 -6 6
-12 6 -17 -2z"/>
<path d="M1931 2750 c1 -24 35 -95 41 -84 3 5 -5 29 -18 54 -12 25 -23 38 -23
30z"/>
<path d="M3108 2649 c-5 -4 2 -9 17 -13 14 -4 30 -4 35 -1 6 4 10 1 10 -5 0
-7 6 -5 15 4 8 8 15 16 15 18 0 6 -82 3 -92 -3z"/>
<path d="M3180 2562 c0 -17 4 -34 10 -37 6 -4 7 6 3 27 -8 44 -13 48 -13 10z"/>
<path d="M2796 2525 c-3 -9 -6 -22 -5 -28 0 -7 5 -1 10 12 5 13 8 26 5 28 -2
2 -6 -3 -10 -12z"/>
<path d="M3178 2480 c-12 -38 -9 -66 5 -79 17 -13 31 -2 18 13 -5 6 -11 29
-13 51 -3 35 -4 37 -10 15z"/>
<path d="M3736 2490 c12 -23 73 -110 109 -155 17 -22 37 -49 43 -60 7 -11 12
-14 12 -7 0 16 -92 149 -140 202 -17 19 -28 28 -24 20z"/>
<path d="M3652 2476 c7 -8 16 -12 21 -9 11 7 -2 23 -19 23 -12 0 -12 -2 -2
-14z"/>
<path d="M3221 2274 c-11 -37 -19 -70 -17 -72 2 -2 14 27 25 64 12 36 20 68
17 71 -2 3 -14 -26 -25 -63z"/>
<path d="M1268 2273 c7 -3 16 -2 19 1 4 3 -2 6 -13 5 -11 0 -14 -3 -6 -6z"/>
<path d="M3807 2264 c-11 -11 -8 -26 3 -19 6 3 10 -2 11 -12 0 -10 3 -13 5 -6
7 15 -10 46 -19 37z"/>
<path d="M3916 2235 c4 -8 8 -15 10 -15 2 0 4 7 4 15 0 8 -4 15 -10 15 -5 0
-7 -7 -4 -15z"/>
<path d="M1286 2105 c-9 -26 -7 -32 5 -12 6 10 9 21 6 23 -2 3 -7 -2 -11 -11z"/>
<path d="M1925 2030 c-3 -5 -1 -10 4 -10 6 0 11 5 11 10 0 6 -2 10 -4 10 -3 0
-8 -4 -11 -10z"/>
<path d="M1902 1960 c0 -14 2 -19 5 -12 2 6 2 18 0 25 -3 6 -5 1 -5 -13z"/>
<path d="M4166 1872 c7 -4 19 -24 27 -44 9 -21 20 -38 26 -38 5 0 -2 20 -16
45 -13 25 -30 45 -36 45 -9 0 -9 -2 -1 -8z"/>
<path d="M1891 1854 c0 -11 3 -14 6 -6 3 7 2 16 -1 19 -3 4 -6 -2 -5 -13z"/>
<path d="M1870 1805 c-11 -13 -10 -14 4 -9 9 3 16 10 16 15 0 13 -6 11 -20 -6z"/>
<path d="M4236 1765 c-3 -9 -2 -14 2 -11 4 2 18 -16 30 -42 13 -26 37 -63 53
-82 l31 -35 -20 35 c-71 124 -90 150 -96 135z"/>
<path d="M2191 1655 c-1 -23 -3 -27 -11 -15 -6 9 -10 10 -10 3 0 -6 5 -15 10
-18 13 -8 23 18 17 42 -3 11 -5 6 -6 -12z"/>
<path d="M1822 1640 c0 -14 2 -19 5 -12 2 6 2 18 0 25 -3 6 -5 1 -5 -13z"/>
<path d="M3003 1565 c0 -27 2 -38 4 -22 2 15 2 37 0 50 -2 12 -4 0 -4 -28z"/>
<path d="M1800 1580 c-8 -5 -11 -12 -7 -16 4 -4 13 -2 19 4 15 15 7 24 -12 12z"/>
<path d="M4360 1571 c0 -5 5 -13 10 -16 6 -3 10 -2 10 4 0 5 -4 13 -10 16 -5
3 -10 2 -10 -4z"/>
<path d="M2145 1540 c-4 -6 1 -7 11 -3 14 5 16 2 10 -23 -5 -24 -4 -26 5 -11
12 20 6 47 -10 47 -5 0 -13 -4 -16 -10z"/>
<path d="M2506 1525 c-3 -9 -6 -22 -5 -28 0 -7 5 -1 10 12 5 13 8 26 5 28 -2
2 -6 -3 -10 -12z"/>
<path d="M4390 1534 c0 -11 38 -74 45 -74 2 0 -5 17 -17 38 -27 46 -28 48 -28
36z"/>
<path d="M1771 1504 c0 -11 3 -14 6 -6 3 7 2 16 -1 19 -3 4 -6 -2 -5 -13z"/>
<path d="M2126 1503 c-6 -14 -5 -15 5 -6 7 7 10 15 7 18 -3 3 -9 -2 -12 -12z"/>
<path d="M2096 1462 c-10 -11 -22 -11 -52 -3 -74 21 -82 17 -100 -45 -9 -31
-12 -60 -8 -64 14 -12 85 -33 91 -26 3 3 -16 10 -41 17 -46 11 -47 12 -40 43
15 71 22 79 57 71 32 -8 64 -9 122 -3 24 2 31 -1 33 -18 2 -15 18 -28 54 -43
50 -21 51 -21 45 -58 -4 -20 -10 -40 -14 -44 -15 -13 -112 14 -119 33 -3 10
-10 18 -16 18 -6 0 -4 -9 4 -22 10 -15 34 -26 73 -35 32 -7 60 -11 62 -9 3 2
11 25 18 51 l14 46 -53 24 c-43 19 -55 30 -60 52 -5 22 -12 28 -32 28 -13 0
-31 -6 -38 -13z"/>
<path d="M2486 1458 c-46 -216 -88 -448 -116 -640 -11 -79 -25 -165 -30 -193
-5 -27 -28 -148 -51 -268 l-42 -219 -26 6 c-14 4 -63 12 -108 18 -65 9 -88 8
-114 -2 -35 -15 -63 -67 -52 -97 9 -25 44 -63 59 -63 7 0 -1 13 -17 29 -19 19
-29 40 -29 59 0 54 49 73 155 61 39 -4 82 -12 97 -18 24 -9 26 -13 18 -43 -20
-81 -21 -88 -6 -88 15 0 23 28 51 190 9 52 27 153 40 225 13 72 27 148 30 170
3 22 14 76 25 120 10 44 22 114 26 155 7 81 15 99 78 169 22 25 30 37 17 26
-14 -11 -37 -33 -51 -49 l-27 -29 47 251 c25 139 43 252 38 252 -4 0 -10 -10
-12 -22z"/>
<path d="M3013 1445 c0 -22 2 -30 4 -17 2 12 2 30 0 40 -3 9 -5 -1 -4 -23z"/>
<path d="M1772 1450 c0 -14 2 -19 5 -12 2 6 2 18 0 25 -3 6 -5 1 -5 -13z"/>
<path d="M1739 1343 c-5 -14 -8 -30 -6 -36 1 -5 8 7 14 27 13 42 7 49 -8 9z"/>
<path d="M2490 1334 c0 -8 5 -12 10 -9 6 3 10 10 10 16 0 5 -4 9 -10 9 -5 0
-10 -7 -10 -16z"/>
<path d="M2053 1328 c-4 -7 -8 -17 -8 -23 0 -5 -10 -9 -22 -8 -29 3 -38 -24
-12 -37 14 -8 18 -17 13 -32 -3 -11 -7 -32 -8 -47 -1 -14 -6 -36 -10 -48 -12
-36 4 -27 20 12 8 19 18 35 23 35 5 0 14 13 21 30 10 25 16 28 41 23 22 -4 29
-2 29 10 0 9 -9 19 -20 22 -11 3 -20 11 -20 16 0 5 -9 9 -20 9 -22 0 -26 20
-8 38 9 9 9 12 1 12 -7 0 -15 -6 -20 -12z m46 -68 c11 0 23 -5 27 -11 4 -7 0
-9 -12 -6 -11 3 -38 11 -61 17 -24 6 -43 15 -43 20 0 5 16 2 35 -6 19 -7 43
-14 54 -14z"/>
<path d="M1480 1326 c0 -2 8 -10 18 -17 15 -13 16 -12 3 4 -13 16 -21 21 -21
13z"/>
<path d="M1295 1224 c14 -31 43 -82 64 -114 21 -31 48 -75 60 -98 11 -22 26
-44 32 -47 16 -11 -17 51 -72 132 -27 40 -60 97 -73 128 -14 30 -27 55 -30 55
-3 0 5 -25 19 -56z"/>
<path d="M4630 1180 c6 -11 13 -20 16 -20 2 0 0 9 -6 20 -6 11 -13 20 -16 20
-2 0 0 -9 6 -20z"/>
<path d="M2566 1178 c3 -4 -2 -15 -10 -23 -9 -9 -12 -23 -9 -32 6 -14 9 -12
19 12 6 16 20 32 30 35 15 6 14 8 -8 12 -15 3 -25 1 -22 -4z"/>
<path d="M2628 1183 c7 -3 16 -2 19 1 4 3 -2 6 -13 5 -11 0 -14 -3 -6 -6z"/>
<path d="M3031 1164 c0 -11 3 -14 6 -6 3 7 2 16 -1 19 -3 4 -6 -2 -5 -13z"/>
<path d="M1676 1125 c-3 -9 -6 -24 -5 -33 0 -9 5 -4 10 12 9 32 6 48 -5 21z"/>
<path d="M3040 1135 c0 -5 7 -35 15 -65 8 -30 16 -80 17 -110 1 -48 2 -50 6
-15 4 44 -13 162 -28 185 -5 8 -10 11 -10 5z"/>
<path d="M2795 1020 c24 -30 43 -47 70 -62 11 -6 18 -9 15 -6 -52 48 -100 87
-85 68z"/>
<path d="M1660 1003 c0 -4 8 -17 16 -28 15 -20 16 -20 12 4 -3 22 -28 44 -28
24z"/>
<path d="M1657 917 c-9 -18 -19 -48 -22 -66 -3 -19 -10 -41 -14 -50 -5 -9 -9
-19 -10 -23 -1 -9 -3 -18 -5 -33 -9 -54 -92 -350 -106 -375 -6 -12 -10 -33 -8
-48 2 -17 22 40 55 153 28 99 70 245 93 324 41 143 47 181 17 118z"/>
<path d="M2892 907 c-18 -35 -19 -38 -3 -19 11 12 21 28 24 35 3 9 17 6 50
-10 62 -30 61 -20 -1 11 l-48 24 -22 -41z"/>
<path d="M4790 943 c0 -6 8 -17 18 -24 16 -13 16 -13 2 6 -8 11 -16 22 -17 24
-2 2 -3 0 -3 -6z"/>
<path d="M3082 870 c0 -19 2 -27 5 -17 2 9 2 25 0 35 -3 9 -5 1 -5 -18z"/>
<path d="M6040 460 c0 -5 5 -10 10 -10 6 0 10 5 10 10 0 6 -4 10 -10 10 -5 0
-10 -4 -10 -10z"/>
<path d="M6147 423 c-4 -3 2 -16 13 -28 17 -18 19 -27 10 -49 -13 -36 -13 -35
12 -28 17 4 20 2 15 -12 -4 -10 -7 -20 -7 -22 0 -2 -7 -4 -16 -4 -29 0 5 -29
42 -36 24 -4 34 -12 34 -25 0 -32 28 -21 52 21 13 22 28 40 35 40 7 0 17 9 23
20 9 17 8 20 -9 20 -14 0 -18 5 -14 20 5 18 -5 25 -29 21 -5 0 -8 6 -8 14 0
18 -12 19 -28 3 -9 -9 -12 -8 -12 5 0 23 -50 43 -61 25 -6 -9 -12 -8 -27 5
-10 9 -22 14 -25 10z m121 -84 c8 -12 19 -18 28 -15 8 3 14 1 14 -4 0 -12 -40
-13 -56 -2 -6 4 -13 15 -17 25 -9 24 15 22 31 -4z"/>
<path d="M1477 275 c-3 -11 -8 -36 -11 -55 -5 -30 -3 -29 9 10 8 25 14 49 12
55 -2 5 -6 1 -10 -10z"/>
<path d="M5996 254 c-18 -47 7 -90 48 -80 23 6 25 9 16 26 -6 11 -18 20 -28
20 -16 -1 -16 -1 1 -11 23 -13 22 -29 -3 -29 -13 0 -22 9 -26 25 -9 36 2 58
26 52 11 -3 18 -1 14 4 -9 15 -41 10 -48 -7z"/>
<path d="M1705 250 c-6 -10 -85 -240 -85 -247 0 -2 10 -3 23 -3 19 0 27 14 60
113 20 61 37 120 37 130 0 18 -25 23 -35 7z"/>
<path d="M1451 164 c0 -11 3 -14 6 -6 3 7 2 16 -1 19 -3 4 -6 -2 -5 -13z"/>
<path d="M6157 110 c6 -22 15 -19 19 5 1 8 -4 15 -11 15 -8 0 -11 -7 -8 -20z"/>
<path d="M6199 113 c14 -28 37 -43 28 -19 -5 13 -3 17 7 13 10 -4 13 -1 9 9
-4 10 -9 11 -17 4 -9 -6 -17 -6 -25 3 -11 10 -11 8 -2 -10z"/>
<path d="M6241 41 c-10 -7 -11 -13 -2 -27 6 -11 11 -15 11 -9 1 6 3 18 5 28 4
20 4 19 -14 8z"/>
<path d="M6335 23 c3 -8 5 -17 5 -19 0 -2 8 -4 18 -3 9 0 12 3 5 5 -7 3 -10
11 -7 18 3 7 -2 13 -11 13 -10 0 -14 -6 -10 -14z"/>
<path d="M6146 15 c-4 -10 1 -15 14 -15 13 0 18 5 14 15 -8 19 -20 19 -28 0z"/>
<path d="M6280 15 c0 -8 5 -15 10 -15 6 0 10 7 10 15 0 8 -4 15 -10 15 -5 0
-10 -7 -10 -15z"/>
</g>
</svg>
