<?xml version="1.0" standalone="no"?>
<!DOCTYPE svg PUBLIC "-//W3C//DTD SVG 20010904//EN"
 "http://www.w3.org/TR/2001/REC-SVG-20010904/DTD/svg10.dtd">
<svg version="1.0" xmlns="http://www.w3.org/2000/svg"
 width="400.000000pt" height="400.000000pt" viewBox="0 0 400.000000 400.000000"
 preserveAspectRatio="xMidYMid meet">
<metadata>
Created by potrace 1.14, written by Peter Selinger 2001-2017
</metadata>
<g transform="translate(0.000000,400.000000) scale(0.100000,-0.100000)"
fill="#000000" stroke="none">
<path d="M2025 3446 c-34 -12 -85 -36 -114 -53 l-53 -30 -104 33 c-104 34
-182 42 -259 25 -28 -6 -50 -41 -26 -41 28 0 6 -20 -38 -35 -75 -25 -130 -65
-206 -151 -84 -94 -145 -169 -170 -206 -16 -26 -16 -28 -1 -34 10 -4 26 1 38
12 16 14 20 15 16 4 -71 -196 -94 -340 -77 -485 10 -96 22 -123 45 -104 11 9
14 7 14 -10 0 -11 0 -24 1 -28 0 -5 -15 -12 -34 -16 -68 -16 -104 -87 -85
-169 18 -83 68 -159 169 -258 88 -86 101 -104 129 -175 52 -130 109 -220 217
-338 50 -55 53 -61 53 -111 0 -31 -5 -57 -12 -63 -7 -5 -52 -26 -100 -47 -103
-45 -157 -89 -194 -156 -15 -28 -41 -58 -58 -68 -47 -28 -148 -232 -150 -303
l-1 -52 -80 -34 c-177 -77 -214 -96 -248 -131 -65 -67 -124 -217 -134 -338
l-6 -71 93 -6 c51 -4 684 -7 1407 -7 l1313 0 0 23 c0 61 -33 226 -54 272 -13
29 -39 66 -57 83 -62 57 -307 209 -398 247 l-89 37 -7 47 c-13 91 -76 195
-136 227 -16 8 -51 47 -78 87 -62 91 -113 140 -173 166 l-46 20 -4 70 c-4 85
5 131 26 147 9 6 16 14 16 17 0 3 16 29 36 58 41 60 119 221 154 317 20 54 31
70 75 102 64 47 93 81 137 162 93 166 88 281 -14 330 l-35 17 -6 83 c-3 46 -4
84 -2 86 2 2 12 -2 24 -9 11 -7 23 -10 27 -7 3 4 -8 68 -25 142 -26 107 -44
158 -87 242 -52 100 -54 107 -37 120 17 13 9 23 -100 128 -150 144 -187 164
-317 178 -55 6 -100 14 -100 18 0 4 7 13 15 20 22 19 18 40 -7 39 -13 0 -50
-10 -83 -23z"/>
</g>
</svg>
